<svg width="40" height="32" viewBox="0 0 40 32" fill="none" xmlns="http://www.w3.org/2000/svg">
<path d="M5.87164 0.0670786C5.33333 0.191179 4.81988 0.530821 4.55487 0.935779L4.30642 1.32767L4.28157 2.81688L4.24845 4.30608H3.03106C1.26708 4.30608 0.712215 4.49549 0.231884 5.27275L0 5.64505V16.7161V27.7871L0.190476 28.0941C0.298137 28.2574 0.546584 28.5121 0.745342 28.6624C1.40787 29.1457 1.0766 29.1261 9.25052 29.1261H16.5217V30.4324C16.5217 31.6538 16.53 31.7453 16.6874 31.8694C16.853 32 16.9607 32 22.1532 32C27.3458 32 27.4534 32 27.619 31.8694C27.7764 31.7453 27.7847 31.6538 27.7847 30.4324V29.1261H30.7495C34.1532 29.1261 34.3354 29.1065 34.9648 28.6493C35.6273 28.1725 35.6853 28.0092 35.7184 26.3045L35.7516 24.8283L37.0932 24.8022C38.2774 24.7826 38.4679 24.763 38.766 24.6389C39.2298 24.443 39.619 24.1294 39.8261 23.7702L40 23.4763V12.3987V1.32767L39.7516 0.935779C39.4783 0.517758 38.9648 0.184647 38.4017 0.060547C38.0124 -0.0243636 6.24431 -0.017832 5.87164 0.0670786ZM38.2195 1.00763C38.3437 1.05988 38.5342 1.18398 38.6253 1.27542C38.7909 1.44524 38.7992 1.52362 38.7992 3.43085V5.41645H28.6211H18.4431L17.1346 4.37139C16.1574 3.5876 15.7516 3.30675 15.5362 3.26102C15.1387 3.17611 10.1118 3.17611 9.71429 3.26102C9.54865 3.30021 9.31677 3.41778 9.20083 3.52882C8.99379 3.71823 8.98551 3.76396 8.98551 4.57387V5.41645H7.19669H5.41615L5.44099 3.47003C5.46584 1.31461 5.47412 1.30808 6.02899 1.04028C6.28571 0.909653 6.57557 0.909653 22.1366 0.909653C35.9586 0.909653 38.0124 0.922716 38.2195 1.00763ZM16.4141 5.12906C17.0849 5.69077 17.7391 6.18717 17.8634 6.23943C18.0538 6.31781 19.7184 6.33087 28.4472 6.33087H38.7992V14.8481V23.3587L38.6253 23.5351C38.2443 23.9139 38.4431 23.9008 32.6957 23.8943H27.412L27.8509 23.7375C28.2236 23.6004 28.3147 23.5351 28.4638 23.2673C28.6046 23.0191 28.6211 22.9146 28.5549 22.7251C28.5135 22.5945 27.1967 20.6742 25.6315 18.4535C22.9648 14.6652 22.7743 14.4104 22.4928 14.319C22.236 14.2341 22.1532 14.2276 21.8634 14.3059C21.5404 14.3974 21.499 14.4431 20.0994 16.4222C15.9669 22.2614 15.735 22.6076 15.7433 22.9211C15.7516 23.313 15.9669 23.5612 16.4803 23.7441L16.8944 23.8943H11.5942C6.48447 23.9008 6.28571 23.8943 6.02899 23.7702C5.87992 23.7049 5.69772 23.5677 5.61491 23.4632C5.47412 23.2934 5.46584 22.8558 5.44099 14.8089L5.42443 6.33087H7.44513H9.46584L9.72257 6.16105C10.0538 5.94551 10.1449 5.65812 10.1449 4.80901V4.11013H12.6625H15.1801L16.4141 5.12906ZM4.28157 14.3517L4.30642 23.4828L4.55487 23.8747C4.82816 24.2927 5.34162 24.6258 5.90476 24.7499C6.10352 24.7891 8.37267 24.8153 12.1905 24.8153C18.1698 24.8153 18.1698 24.8153 18.2609 24.9524C18.3188 25.0243 18.3768 25.2463 18.4017 25.4423L18.4513 25.795H18.0455C17.4658 25.795 17.0849 25.8995 16.8033 26.1281C16.5631 26.3241 16.5631 26.3241 16.5383 27.2711L16.5135 28.2117H9.30849C1.49068 28.2117 1.74741 28.2247 1.38302 27.8524L1.20083 27.6696V16.7357C1.20083 6.55947 1.20911 5.78222 1.34161 5.60586C1.58178 5.28582 1.86335 5.2205 3.12215 5.2205H4.26501L4.28157 14.3517ZM21.5735 17.2909V18.251L21.2671 18.3816C20.6708 18.6364 20.2981 19.3483 20.4886 19.897C20.7205 20.5763 21.3333 20.9159 22.2443 20.8832C22.6832 20.8636 22.8654 20.8245 23.1222 20.6808C24.1242 20.1321 24.0994 18.9107 23.0725 18.4143L22.7412 18.251L22.7329 17.2778C22.7329 16.7422 22.7495 16.3177 22.766 16.3307C22.8157 16.3699 27.3706 22.8558 27.3706 22.8819C27.3706 22.9015 27.2298 22.9472 27.0642 22.9929C25.8385 23.3065 24.8282 24.3319 24.7371 25.3443L24.6957 25.795H22.1532H19.6108L19.5694 25.3378C19.4783 24.3972 18.6335 23.4697 17.4741 23.0387L16.9275 22.8427L17.0849 22.6337C17.1677 22.5227 18.2029 21.0596 19.3789 19.3744C20.5549 17.6958 21.5321 16.3242 21.5487 16.3242C21.5652 16.3242 21.5735 16.7553 21.5735 17.2909ZM22.559 19.3026C22.6584 19.4006 22.7329 19.5116 22.7329 19.5573C22.7329 19.7272 22.3934 19.9819 22.1615 19.9819C21.6729 19.9819 21.441 19.6096 21.7391 19.3091C21.9793 19.074 22.3271 19.074 22.559 19.3026ZM34.559 26.213C34.5176 28.3227 34.7412 28.2117 30.7081 28.2117H27.793L27.7681 27.2711C27.7433 26.3698 27.735 26.3175 27.5362 26.1477C27.2464 25.906 26.8737 25.795 26.3271 25.795H25.8551L25.9048 25.4423C25.9959 24.7499 25.5321 24.8153 30.3602 24.8153H34.5921L34.559 26.213ZM26.6253 28.8975V31.0856H22.1532H17.6812V28.8975V26.7094H22.1532H26.6253V28.8975Z" fill="url(#paint0_linear_3351_14)"/>
<path d="M28.0749 2.0594C27.4538 2.31413 27.1722 2.71909 27.2219 3.27428C27.2799 3.93397 27.901 4.37158 28.7623 4.37158C29.5407 4.37158 30.0625 4.05807 30.2695 3.47022C30.4434 2.93463 30.1039 2.32066 29.4993 2.09206C29.0687 1.92877 28.431 1.91571 28.0749 2.0594ZM29.077 3.03261C29.3006 3.3004 28.754 3.60739 28.4641 3.37878C28.3233 3.26774 28.3399 3.09139 28.4973 2.96729C28.6712 2.83013 28.9362 2.86279 29.077 3.03261Z" fill="url(#paint1_linear_3351_14)"/>
<path d="M31.5859 2.13792C30.6004 2.63432 30.6584 3.8296 31.677 4.24109C32.0332 4.38479 32.6874 4.41091 33.0601 4.29988C33.8303 4.07127 34.2029 3.26789 33.8385 2.63432C33.5901 2.20977 33.1677 1.99423 32.5135 1.9681C32.0249 1.94851 31.9255 1.9681 31.5859 2.13792ZM32.704 2.97397C32.9773 3.18298 32.8116 3.4573 32.4058 3.4573C32.0911 3.4573 31.9503 3.24176 32.1325 3.02622C32.2816 2.84333 32.5135 2.82374 32.704 2.97397Z" fill="url(#paint2_linear_3351_14)"/>
<path d="M35.445 2.04634C34.9067 2.23575 34.5754 2.66031 34.5754 3.16324C34.5754 3.52248 34.6914 3.76414 34.973 3.99928C35.3042 4.28014 35.5941 4.37158 36.1158 4.37158C37.0351 4.37158 37.6396 3.89478 37.6396 3.16977C37.6396 2.96729 37.5899 2.71909 37.5237 2.62112C37.3663 2.38598 36.9854 2.11165 36.7038 2.02674C36.3808 1.92877 35.7431 1.94183 35.445 2.04634ZM36.3808 2.9477C36.4388 2.99342 36.4802 3.08486 36.4802 3.16324C36.4802 3.24162 36.4388 3.33306 36.3808 3.37878C36.3229 3.4245 36.2069 3.45716 36.1075 3.45716C36.0082 3.45716 35.8922 3.4245 35.8342 3.37878C35.7763 3.33306 35.7349 3.24162 35.7349 3.16324C35.7349 3.08486 35.7763 2.99342 35.8342 2.9477C35.8922 2.90198 36.0082 2.86932 36.1075 2.86932C36.2069 2.86932 36.3229 2.90198 36.3808 2.9477Z" fill="url(#paint3_linear_3351_14)"/>
<path d="M20.3477 9.53175C19.9999 9.70158 19.8343 10.0086 19.8343 10.5115V10.9034H16.1076H12.3891L12.2815 10.6225C12.1324 10.2306 11.4616 9.71464 10.9481 9.6036C9.68107 9.32274 8.43883 9.84527 8.15726 10.7793C7.75146 12.1183 9.23386 13.2221 10.9233 12.8367C11.4533 12.7126 11.9585 12.3926 12.1655 12.0464L12.3063 11.8178H14.766H17.2173L16.6045 12.1117C14.385 13.196 12.6459 14.9464 11.9171 16.8275L11.7101 17.3697H11.2049C10.5175 17.3697 10.1614 17.5134 9.96264 17.8726C9.82186 18.1273 9.80529 18.2841 9.83014 19.2965C9.85498 20.3219 9.87155 20.446 10.0289 20.6159C10.3684 20.9751 10.6252 21.0273 12.1738 21.0273C14.3933 21.0273 14.4513 20.9751 14.4513 19.1658C14.4513 18.1012 14.4347 17.9706 14.2856 17.7746C14.0951 17.5264 13.6894 17.3697 13.2504 17.3697C12.9689 17.3697 12.9606 17.3631 13.0103 17.1868C13.1842 16.6316 13.8715 15.5343 14.443 14.9268C15.2711 14.032 16.414 13.2417 17.6231 12.7322C18.2359 12.471 19.4865 12.0791 19.7018 12.0791C19.768 12.0791 19.8508 12.2032 19.9088 12.3665C19.9668 12.5493 20.091 12.7126 20.2566 12.8237L20.5134 12.9935H22.1283C23.503 12.9935 23.7763 12.9739 23.9833 12.8825C24.2484 12.7584 24.472 12.4383 24.472 12.1901V12.0268L24.9109 12.1248C25.5734 12.2685 27.2628 12.9478 27.8674 13.3135C29.3167 14.1757 30.5092 15.4363 31.1386 16.7557C31.4036 17.3174 31.4036 17.3697 31.0972 17.3697C30.6997 17.3697 30.2856 17.5395 30.1034 17.7746C29.9544 17.9706 29.9378 18.1012 29.9378 19.1985C29.9378 20.9947 29.9792 21.0273 32.2318 21.0273C33.7639 21.0273 34.0289 20.9751 34.3602 20.6159C34.5175 20.4526 34.5341 20.3219 34.5589 19.3683C34.592 18.1665 34.5258 17.8726 34.1614 17.5983C33.9295 17.4219 33.8384 17.4023 33.267 17.3827L32.6293 17.3566L32.3974 16.7949C31.6024 14.8289 29.8467 13.0915 27.6355 12.0725L27.0807 11.8178H29.5817C32.0496 11.8178 32.0827 11.8178 32.1324 11.955C32.2235 12.1705 32.7535 12.5951 33.1096 12.7453C33.8384 13.0327 34.8819 12.9412 35.5196 12.5298C36.4057 11.9484 36.4802 10.7074 35.6686 10.0347C35.0972 9.55788 33.9875 9.38806 33.1842 9.66239C32.6624 9.83874 32.1655 10.2633 32.0165 10.6356L31.9171 10.9034H28.1987H24.472V10.5115C24.472 10.0086 24.3063 9.70158 23.9585 9.53175C23.7101 9.41419 23.5444 9.40112 22.1531 9.40112C20.7618 9.40112 20.5962 9.41419 20.3477 9.53175ZM23.3125 11.23V12.1444H22.1531H20.9937V11.23V10.3155H22.1531H23.3125V11.23ZM10.8985 10.6291C11.2214 10.8577 11.3125 11.2953 11.0972 11.6153C10.9564 11.8374 10.5589 12.0138 10.2111 12.0138C9.77217 12.0138 9.23386 11.5827 9.23386 11.23C9.23386 11.1516 9.29184 10.9948 9.35809 10.8773C9.63138 10.4266 10.4264 10.296 10.8985 10.6291ZM34.5672 10.5442C34.6997 10.5964 34.8653 10.7466 34.9482 10.8773C35.445 11.7068 34.1034 12.4057 33.3415 11.7133C33.1345 11.5304 33.0848 11.4259 33.0848 11.1908C33.0848 10.936 33.1262 10.8577 33.3664 10.6683C33.5983 10.4854 33.7142 10.4462 33.9875 10.4462C34.178 10.4462 34.443 10.4919 34.5672 10.5442ZM13.2918 19.1985V20.1129H12.1324H10.973V19.1985V18.2841H12.1324H13.2918V19.1985ZM33.3581 18.9176C33.3912 19.2703 33.4161 19.6818 33.4161 19.8321V20.1129H32.2566H31.0972V19.8974C31.0972 19.7733 31.0724 19.3618 31.0392 18.983L30.9896 18.2841H32.149H33.3084L33.3581 18.9176Z" fill="url(#paint4_linear_3351_14)"/>
<defs>
<linearGradient id="paint0_linear_3351_14" x1="2.26666" y1="32" x2="28.6471" y2="-4.41324" gradientUnits="userSpaceOnUse">
<stop offset="0.259336" stop-color="#FFDB6E"/>
<stop offset="1" stop-color="#FFBC5E"/>
</linearGradient>
<linearGradient id="paint1_linear_3351_14" x1="27.3919" y1="4.37158" x2="29.3623" y2="1.57581" gradientUnits="userSpaceOnUse">
<stop offset="0.259336" stop-color="#FFDB6E"/>
<stop offset="1" stop-color="#FFBC5E"/>
</linearGradient>
<linearGradient id="paint2_linear_3351_14" x1="31.0546" y1="4.36865" x2="33.0193" y2="1.57379" gradientUnits="userSpaceOnUse">
<stop offset="0.259336" stop-color="#FFDB6E"/>
<stop offset="1" stop-color="#FFBC5E"/>
</linearGradient>
<linearGradient id="paint3_linear_3351_14" x1="34.7491" y1="4.37158" x2="36.7267" y2="1.59672" gradientUnits="userSpaceOnUse">
<stop offset="0.259336" stop-color="#FFDB6E"/>
<stop offset="1" stop-color="#FFBC5E"/>
</linearGradient>
<linearGradient id="paint4_linear_3351_14" x1="9.68441" y1="21.0273" x2="16.3047" y2="3.33062" gradientUnits="userSpaceOnUse">
<stop offset="0.259336" stop-color="#FFDB6E"/>
<stop offset="1" stop-color="#FFBC5E"/>
</linearGradient>
</defs>
</svg>
